HIERARCHY
ROOT Hips
{
	OFFSET 0.000000 0.000000 0.000000
	CHANNELS 6 Xposition Yposition Zposition Zrotation Yrotation Xrotation 
	JOINT LHipJoint
	{
		OFFSET 0.000000 0.000000 0.000000
		CHANNELS 3 Zrotation Yrotation Xrotation
		JOINT LeftUpLeg
		{
			OFFSET 1.363060 -1.794630 0.839290
			CHANNELS 3 Zrotation Yrotation Xrotation
			JOINT LeftLeg
			{
				OFFSET 2.448110 -6.726130 0.000000
				CHANNELS 3 Zrotation Yrotation Xrotation
				JOINT LeftFoot
				{
					OFFSET 2.562200 -7.039590 0.000000
					CHANNELS 3 Zrotation Yrotation Xrotation
					JOINT LeftToeBase
					{
						OFFSET 0.157640 -0.433110 2.322550
						CHANNELS 3 Zrotation Yrotation Xrotation
						End Site
						{
							OFFSET 0.000000 0.000000 0.000000
						}
					}
				}
			}
		}
	}
	JOINT RHipJoint
	{
		OFFSET 0.000000 0.000000 0.000000
		CHANNELS 3 Zrotation Yrotation Xrotation
		JOINT RightUpLeg
		{
			OFFSET -1.305520 -1.794630 0.839290
			CHANNELS 3 Zrotation Yrotation Xrotation
			JOINT RightLeg
			{
				OFFSET -2.542530 -6.985550 0.000000
				CHANNELS 3 Zrotation Yrotation Xrotation
				JOINT RightFoot
				{
					OFFSET -2.568260 -7.056230 0.000000
					CHANNELS 3 Zrotation Yrotation Xrotation
					JOINT RightToeBase
					{
						OFFSET -0.164730 -0.452590 2.363150
						CHANNELS 3 Zrotation Yrotation Xrotation
						End Site
						{
							OFFSET 0.000000 0.000000 0.000000
						}
					}
				}
			}
		}
	}
}
MOTION
Frames: 25
Frame Time: 0.008333
-1.180347 15.407147 -0.410269 11.914321 62.396320 31.683149 -12.474385 2.427793 -1.926078 1.958921 14.644202 -36.147013 4.334795 5.861561 99.897380 2.551815 14.435259 5.416180 2.696700 -0.000000 -31.799100 9.741755 -1.209886 4.413752 14.607768 10.608558 -39.721445 1.777790 -3.336357 61.325396 -2.532626 2.357837 -41.625141 -179.161900 -0.000000 -15.773700
-1.023664 15.475351 -0.375186 11.763417 61.599733 31.826082 -12.323397 2.184108 -1.835225 1.501613 13.883853 -37.688678 4.333374 5.813080 99.949089 2.525928 14.281451 4.923157 2.572900 0.000000 -30.512600 9.865194 -1.209130 4.414170 13.852321 10.695123 -38.735409 1.855236 -3.208508 59.943051 -2.392580 2.844238 -41.061804 -179.431400 0.000001 -13.494400
-0.861695 15.557048 -0.339448 11.558185 60.780978 31.937646 -12.163676 1.947237 -1.726237 1.018889 13.154847 -39.207973 4.294526 5.745627 99.760415 2.502889 14.122573 4.630269 2.489300 0.000000 -29.388100 9.976713 -1.212325 4.444717 13.051121 10.846469 -37.668034 1.926912 -3.055879 58.301668 -2.241627 3.273838 -40.284526 -179.669800 -0.000000 -10.775800
-0.694120 15.652603 -0.303047 11.310471 59.949552 32.014869 -11.997212 1.720430 -1.600167 0.515789 12.458914 -40.678261 4.217094 5.659304 99.307797 2.485955 13.984843 4.544427 2.452200 0.000000 -28.515100 10.075261 -1.222297 4.495349 12.219900 11.030093 -36.493354 1.991494 -2.878017 56.382648 -2.076568 3.653141 -39.266399 -179.877900 -0.000000 -7.627401
-0.520643 15.762201 -0.265724 11.034849 59.117138 32.058780 -11.825506 1.506680 -1.457815 -0.003007 11.793642 -42.071838 4.099987 5.553414 98.563991 2.478145 13.894714 4.658911 2.465100 0.000000 -27.971800 10.160771 -1.241246 4.555799 11.374606 11.214005 -35.188963 2.049567 -2.675522 54.174379 -1.895441 4.003314 -38.005904 179.936900 0.000000 -4.463600
-0.340990 15.885601 -0.227048 10.747289 58.296830 32.074412 -11.650030 1.308805 -1.300444 -0.533840 11.153759 -43.362275 3.944342 5.427523 97.511831 2.481892 13.876459 4.951910 2.529300 0.000000 -27.799400 10.234823 -1.271104 4.617725 10.527388 11.371767 -33.739775 2.101002 -2.450044 51.672116 -1.694080 4.353670 -36.491955 179.764500 0.000000 -1.597400
-0.155033 16.022197 -0.186511 10.467289 57.500146 32.072966 -11.471917 1.129647 -1.128846 -1.075276 10.530209 -44.526346 3.752547 5.281156 96.138197 2.498484 13.948270 5.388732 2.644000 -0.000000 -27.993500 10.301592 -1.314527 4.675419 9.684027 11.481428 -32.140877 2.141379 -2.204537 48.873050 -1.462775 4.730795 -34.655343 -0.402700 -0.000001 -1.235700
0.037424 16.170900 -0.143625 10.207738 56.737414 32.064239 -11.292812 0.971427 -0.943549 -1.622934 9.913921 -45.546100 3.529060 5.114651 94.439100 2.527470 14.116560 5.924381 2.805300 -0.000000 -28.498300 10.365436 -1.374148 4.726118 8.849309 11.530790 -30.400098 2.165949 -1.943909 45.788232 -1.196009 5.154699 -32.439653 -0.563500 -0.000001 -4.137300
0.236352 16.330232 -0.097935 9.976131 56.016030 32.056091 -11.114769 0.835646 -0.744700 -2.169184 9.296931 -46.410319 3.279898 4.929293 92.418454 2.566378 14.372471 6.508126 3.005300 -0.000000 -29.213900 10.430531 -1.452707 4.769551 8.028235 11.516639 -28.538321 2.169561 -1.675345 42.444401 -0.893692 5.633074 -29.799098 -0.705300 0.000000 -7.140100
0.441684 16.498289 -0.049198 9.777246 55.338873 32.057525 -10.939919 0.723645 -0.532037 -2.707679 8.671636 -47.115333 3.012193 4.727285 90.089200 2.611095 14.693133 7.089601 3.232201 0.000000 -30.015900 10.502019 -1.554404 4.807368 7.221717 11.440051 -26.589128 2.143820 -1.409007 38.875606 -0.558611 6.153658 -26.647716 -0.801700 0.000000 -10.814700
0.653118 16.672947 0.002732 9.609649 54.706167 32.072949 -10.770620 0.635890 -0.305023 -3.228733 8.033431 -47.664105 2.733436 4.511602 87.471347 2.655891 15.039620 7.626192 3.469200 -0.000001 -30.784100 10.583191 -1.682793 4.841639 6.433884 11.307489 -24.595330 2.083739 -1.157304 35.135272 -0.205117 6.690296 -22.948033 -0.816500 0.000000 -15.391600
0.870225 16.851882 0.057741 9.470868 54.114863 32.106276 -10.608742 0.572604 -0.063016 -3.725077 7.378447 -48.065011 2.450485 4.285473 84.588843 2.694187 15.362706 8.089701 3.697100 0.000001 -31.429300 10.676908 -1.841503 4.873294 5.668469 11.122507 -22.604838 1.985085 -0.934284 31.281257 0.146233 7.200640 -18.649156 -0.707700 0.000000 -21.511500
1.092301 17.032707 0.115640 9.350874 53.565538 32.152587 -10.455995 0.531688 0.194190 -4.182026 6.706640 -48.328380 2.169372 4.051491 81.467815 2.718503 15.602583 8.469553 3.894500 0.000000 -31.908600 10.779763 -2.026479 4.901843 4.940121 10.897080 -20.664930 1.859896 -0.749141 27.414636 0.461422 7.657563 -13.922919 -0.455600 0.000000 -27.825400
1.318429 17.213055 0.176121 9.249721 53.057443 32.213475 -10.312353 0.511763 0.466445 -4.595112 6.015789 -48.464897 1.894509 3.811366 78.132619 2.721646 15.701762 8.775284 4.043600 0.000001 -32.229700 10.891091 -2.233074 4.923649 4.255892 10.624116 -18.820823 1.716649 -0.608641 23.629487 0.715890 8.024149 -8.874902 -0.055400 0.000000 -34.089600
1.547466 17.390661 0.238880 9.172899 52.592477 32.290508 -10.176527 0.511065 0.752993 -4.963786 5.302639 -48.480755 1.628974 3.565373 74.602958 2.696840 15.608641 9.034569 4.131200 0.000001 -32.444000 11.009909 -2.450819 4.931432 3.621473 10.281366 -17.113573 1.569389 -0.512963 20.047257 0.891868 8.282354 -3.728214 0.462600 0.000000 -39.200100
1.778122 17.563494 0.303582 9.133690 52.172537 32.387419 -10.046333 0.528925 1.052686 -5.294243 4.561894 -48.375539 1.374385 3.313076 70.890369 2.638404 15.285139 9.291176 4.152000 -0.000000 -32.643300 11.138418 -2.668942 4.913949 3.037307 9.820045 -15.578473 1.426155 -0.458845 16.779664 0.984347 8.412803 1.334097 1.048100 -0.000000 -42.821200
2.009155 17.729826 0.369891 9.146862 51.798897 32.505557 -9.919472 0.565634 1.362871 -5.594934 3.789081 -48.140138 1.130921 3.054284 66.997475 2.541941 14.708962 9.596992 4.106100 -0.000000 -32.906400 11.280455 -2.878201 4.858733 2.501502 9.183095 -14.234093 1.287634 -0.440601 13.903928 0.995261 8.378078 6.193034 1.638799 0.000000 -45.504600
2.239380 17.888261 0.437404 9.216546 51.476042 32.634780 -9.795382 0.620448 1.679612 -5.865221 2.984820 -47.758682 0.897829 2.789320 62.919837 2.404918 13.874687 10.010227 3.997799 -0.000000 -33.334900 11.436052 -3.067875 4.754967 2.017296 8.328528 -13.081363 1.155944 -0.448431 11.495119 0.932759 8.140681 10.644013 2.147899 -0.000000 -46.948300
2.467979 18.037625 0.505659 9.333843 51.207864 32.756498 -9.675584 0.692058 1.997639 -6.096241 2.155622 -47.214049 0.673178 2.520033 58.650235 2.227363 12.795128 10.586828 3.832100 0.000000 -34.014500 11.601917 -3.231587 4.597628 1.590529 7.249361 -12.096606 1.028597 -0.472762 9.575529 0.806820 7.627850 14.556608 2.481700 0.000000 -47.448000
2.694358 18.176991 0.574247 9.485352 50.995710 32.850565 -9.562145 0.778634 2.310833 -6.278475 1.310760 -46.490013 0.453898 2.248970 54.183288 2.012795 11.504583 11.370563 3.613400 -0.000000 -34.965200 11.773476 -3.365934 4.387382 1.219867 5.973046 -11.238738 0.901810 -0.505787 8.134087 0.627304 6.758216 17.841404 2.548400 -0.000001 -47.377500
2.918238 18.305521 0.642729 9.650201 50.839798 32.893559 -9.458550 0.876937 2.613792 -6.398060 0.460683 -45.575710 0.236242 1.979140 49.522647 1.768550 10.055922 12.387351 3.344600 0.000000 -36.153200 11.943323 -3.469503 4.129325 0.902680 4.553355 -10.457338 0.774808 -0.541148 7.144360 0.404900 5.477348 20.408348 2.278400 0.000000 -46.695100
3.139778 18.422382 0.710729 9.805640 50.737276 32.865816 -9.368305 0.982400 2.902837 -6.442097 -0.386857 -44.471748 0.016259 1.713552 44.689235 1.505781 8.519299 13.639464 3.029600 0.000000 -37.480700 12.103874 -3.543586 3.832463 0.630851 3.059662 -9.702599 0.647919 -0.575328 6.565073 0.149138 3.780973 22.218106 1.655500 0.000000 -45.483600
3.359407 18.526751 0.777753 9.925475 50.681720 32.749007 -9.295130 1.088509 3.176309 -6.395750 -1.226345 -43.193681 -0.209390 1.454954 39.727782 1.238259 6.974924 15.100865 2.675600 -0.000000 -38.806100 12.246528 -3.591720 3.508473 0.396961 1.568771 -8.932655 0.523580 -0.607267 6.352987 -0.130699 1.733664 23.274221 0.730400 0.000000 -43.878300
3.577890 18.617780 0.843451 9.984645 50.664182 32.532595 -9.241766 1.187133 3.435559 -6.246229 -2.056117 -41.779526 -0.442017 1.205360 34.712189 0.980507 5.505341 16.719480 2.297500 -0.000001 -39.981400 12.363142 -3.619742 3.171327 0.195529 0.153248 -8.125570 0.405897 -0.638200 6.473389 -0.424284 -0.532863 23.623162 -0.384700 0.000000 -42.020701
3.795995 18.695014 0.907373 9.954443 50.674295 32.199686 -9.211022 1.268853 3.678652 -5.979974 -2.866306 -40.274364 -0.679972 0.966601 29.741759 0.745144 4.179893 18.417623 1.914600 -0.000000 -40.884999 12.443425 -3.636203 2.834927 0.032055 -1.105753 -7.248325 0.299611 -0.670003 6.873081 -0.721274 -2.869796 23.353597 -1.556700 -0.000000 -39.893800
